<?xml version="1.0" encoding="utf-8"?>
<!-- Generator: Adobe Illustrator 19.1.0, SVG Export Plug-In . SVG Version: 6.00 Build 0)  -->
<svg version="1.1" id="Layer_1" xmlns="http://www.w3.org/2000/svg" xmlns:xlink="http://www.w3.org/1999/xlink" x="0px" y="0px"
	 viewBox="0 0 200 200" enable-background="new 0 0 200 200" xml:space="preserve">
<g>
	<path fill="#666666" d="M156.2,143.9H32.9c-1,0-1.9-0.8-1.9-1.8l-3.5-70c-0.1-2.9,2.1-5.3,5-5.3h124c2.9,0,5.2,2.4,5,5.3l-3.5,70
		C158.1,143.1,157.2,143.9,156.2,143.9z"/>
	<path fill="#666666" d="M153.1,57H81.5c-0.5,0-0.8-1-0.9-1.7l-0.3-1.7c-0.2-1.4-1.8-2.6-3.7-2.6H39.8c-1.9,0-3.5,1.2-3.7,2.7
		l-0.5,2.1C35.6,56.3,35.3,57,35,57H36c-2.7,0-5,2.5-5,5.3V65h127v-2.7C158,59.5,155.8,57,153.1,57z"/>
</g>
</svg>
