<?xml version="1.0" encoding="utf-8"?>
<!-- Generator: Adobe Illustrator 19.1.0, SVG Export Plug-In . SVG Version: 6.00 Build 0)  -->
<svg version="1.1" id="Layer_1" xmlns="http://www.w3.org/2000/svg" xmlns:xlink="http://www.w3.org/1999/xlink" x="0px" y="0px"
	 viewBox="0 0 500 500" style="enable-background:new 0 0 500 500;" xml:space="preserve">
<style type="text/css">
	.st0{fill:#666666;}
</style>
<g>
	<g>
		<g>
			<path class="st0" d="M250.6,244.8c39.2,0.1,66.7-49.3,69.7-86.1c0.6-7.8,2.2-30.7-12.4-52.6c-4-6-23.3-33-57.3-33.6
				c-37.9-0.7-58.7,31.9-60.2,34.3c-12.8,20.8-10.6,42.3-9.5,51.8C185,193.5,210.7,244.7,250.6,244.8z"/>
			<path class="st0" d="M444.9,326c0.6-22.4-60.7-71-138.5-88.6c-14,19.6-33.3,34-56,33.9c-22.9,0-41.7-14.6-55.4-34.3
				c-78.4,17.3-140.5,66.3-139.9,89l0,0v20v14.4v21.9c0,11,9,20,20,20h349.8c11,0,20-9,20-20V367v-21V326L444.9,326z"/>
		</g>
	</g>
</g>
</svg>
