<?xml version="1.0" encoding="utf-8"?>
<!-- Generator: Adobe Illustrator 19.1.0, SVG Export Plug-In . SVG Version: 6.00 Build 0)  -->
<svg version="1.1" id="Layer_1" xmlns="http://www.w3.org/2000/svg" xmlns:xlink="http://www.w3.org/1999/xlink" x="0px" y="0px"
	 viewBox="0 0 500 500" enable-background="new 0 0 500 500" xml:space="preserve">
<g>
	<g>
		<g>
			<path fill="#666666" d="M253.7,245.2c39.2,0.1,66.7-49.3,69.7-86.1c0.6-7.8,2.2-30.7-12.4-52.6c-4-6-23.3-33-57.3-33.6
				c-37.9-0.7-58.7,31.9-60.2,34.3c-12.8,20.8-10.6,42.3-9.5,51.8C188.1,193.9,213.8,245.1,253.7,245.2z"/>
			<path fill="#666666" d="M448,326.4c0.6-22.4-60.7-71-138.5-88.6c-14,19.6-33.3,34-56,33.9c-22.9,0-41.7-14.6-55.4-34.3
				c-78.4,17.3-140.5,66.3-139.9,89h0v20v14.4v21.9c0,11,9,20,20,20H428c11,0,20-9,20-20v-15.3v-21L448,326.4L448,326.4z"/>
		</g>
	</g>
</g>
</svg>
